# xmcd
#
# Track frame offsets: 
#        150
#        25403
#        49199
#        68024
#        85760
#        116208
#        140579
#        161161
#        190994
#        198687
#        224261
#        257406
#        269231
#
# Disc length: 3992 seconds
#
# Revision: 2
# Processed by: cddbd v1.5.2PL0 Copyright (c) Steve Scherf et al.
# Submitted via: ExactAudioCopy v0.95b4
#
DISCID=cd0f960d
DTITLE=Luciano Pavarotti - Definitive Gold [CD 3)
DYEAR=2006
DGENRE=Opera
TTITLE0=Giuseppe Verdi - Luisa Miller - Sinfonia-Overture
TTITLE1=Giuseppe Verdi - Luisa Miller - Atto 1 - Scena 1 - Ti Desta Lu
TTITLE1=isa Regina De'Cori (Laura, Contadini)
TTITLE2=Giuseppe Verdi - Luisa Miller - Atto 1 - Scena 1 - Non temer (
TTITLE2=Luisa)
TTITLE3=Giuseppe Verdi - Luisa Miller - Atto 1 - Scena 1 - T'amo D'amo
TTITLE3=r Ch'esprimere (Luisa)
TTITLE4=Giuseppe Verdi - Luisa Miller - Atto 1 - Scena 1 - Ferma ed as
TTITLE4=colta (Wurm)
TTITLE5=Giuseppe Verdi - Luisa Miller - Atto 1 - Scena 2 - Che Mai Nar
TTITLE5=rasti (Walter)
TTITLE6=Giuseppe Verdi - Luisa Miller - Atto 1 - Scena 2 - Padre... M'
TTITLE6=abbraccia (Rodolfo, Federica)
TTITLE7=Giuseppe Verdi - Luisa Miller - Atto 1 - Scena 2 - Duchessa...
TTITLE7=Duchessa tu M'appelli (Rodolfo, Federica)
TTITLE8=Giuseppe Verdi - Luisa Miller - Atto 1 - Scena 3 - Sciogliete 
TTITLE8=i levrieri (Cacciatori)
TTITLE9=Giuseppe Verdi - Luisa Miller - Atto 1 - Scena 3 - Del Conte D
TTITLE9=i Walter Figlio (Miller)
TTITLE10=Giuseppe Verdi - Luisa Miller - Atto 1 - Scena 3 - Fra Mortal
TTITLE10=i ancora oppressa (Miller)
TTITLE11=Giuseppe Verdi - Luisa Miller - Atto 2 - Scena 1 - Ah! Luisa,
TTITLE11=Luisa ove sei ? (Contadini)
TTITLE12=Giuseppe Verdi - Luisa Miller - Atto 2 - Scena 1 - Il padre t
TTITLE12=uo (Wurm)
EXTD=YEAR: 2006
EXTT0=
EXTT1=
EXTT2=
EXTT3=
EXTT4=
EXTT5=
EXTT6=
EXTT7=
EXTT8=
EXTT9=
EXTT10=
EXTT11=
EXTT12=
PLAYORDER=
